<?xml version="1.0" encoding="UTF-8"?>
<svg width="510px" height="176px" viewBox="0 0 510 176" version="1.1" xmlns="http://www.w3.org/2000/svg" xmlns:xlink="http://www.w3.org/1999/xlink">
    <!-- Generator: Sketch 51.2 (57519) - http://www.bohemiancoding.com/sketch -->
    <title>trimm-logo</title>
    <desc>Created with Sketch.</desc>
    <defs></defs>
    <g id="Page-1" stroke="none" stroke-width="1" fill="none" fill-rule="evenodd">
        <g id="Artboard" fill="#33D8BB" fill-rule="nonzero">
            <g id="trimm-logo">
                <path d="M78.8,173.2 C75.6,174.3 68.3,175.1 63.6,175.1 C49,175.1 38.3,170.2 32.1,162 C27.4,155.8 25.3,147.8 25.3,134.8 L25.3,102.9 L0,102.9 L0,82.3 L25.3,82.3 L25.3,57 L49.7,57 L49.7,82.3 L79.7,82.3 L79.7,102.9 L49.7,102.9 L49.7,137.6 C49.7,143.2 50.6,146.6 52.7,149 C55.1,151.8 59.1,153.5 65.1,153.5 C68.7,153.5 73.3,152.9 75,152.6 L78.8,173.2 Z" id="Shape"></path>
                <path d="M147.3,103.8 C145.6,103.2 142,102.9 138.5,102.9 C127.8,102.9 119.4,110.6 116.4,116 L116.4,173.2 L92,173.2 L92,82.3 L115.4,82.3 L115.4,91.5 C120.8,84.8 130.8,80.4 141.8,80.4 C145.4,80.4 147.4,80.8 150,81.1 L147.3,103.8 Z" id="Shape"></path>
                <path d="M196.3,173.2 L196.3,82.3 L219.7,82.3 L219.7,89.6 C226.8,83.2 235.4,80.4 244.3,80.4 C256.7,80.4 267.7,86 274.9,94.6 C282.2,86.9 293.6,80.4 307.1,80.4 C319.7,80.4 331.7,86 339,95 C344.8,102.1 348.2,111.5 348.2,125 L348.2,173.2 L323.8,173.2 L323.8,124.1 C323.8,115.9 322.1,111.7 319.3,108.5 C315.6,104.4 310.3,102.9 305.6,102.9 C295.1,102.9 286.9,110.2 283.7,114.9 C284.1,117.9 284.5,121.3 284.5,125 L284.5,173.2 L260,173.2 L260,124.1 C260,115.9 258.3,111.7 255.5,108.5 C251.7,104.4 246.5,102.9 241.8,102.9 C231.5,102.9 224,109.8 220.6,114.1 L220.6,173.2 L196.3,173.2 Z" id="Shape"></path>
                <path d="M358.1,173.2 L358.1,82.3 L381.5,82.3 L381.5,89.6 C388.6,83.2 397.2,80.4 406.1,80.4 C418.5,80.4 429.5,86 436.7,94.6 C444,86.9 455.4,80.4 468.9,80.4 C481.5,80.4 493.5,86 500.8,95 C506.6,102.1 510,111.5 510,125 L510,173.2 L485.6,173.2 L485.6,124.1 C485.6,115.9 483.9,111.7 481.1,108.5 C477.4,104.4 472.1,102.9 467.4,102.9 C456.9,102.9 448.7,110.2 445.5,114.9 C445.9,117.9 446.2,121.3 446.2,125 L446.2,173.2 L421.8,173.2 L421.8,124.1 C421.8,115.9 420.1,111.7 417.3,108.5 C413.6,104.4 408.3,102.9 403.6,102.9 C393.3,102.9 385.8,109.8 382.4,114.1 L382.4,173.2 L358.1,173.2 Z" id="Shape"></path>
                <g id="Group" transform="translate(141.000000, 0.000000)">
                    <path d="M38.3,25.6 C38.7,25.3 39.1,25.1 39.6,25.2 C39.6,25.2 39.7,25.2 39.7,25.2 C40.8,25.6 42,25.9 43.3,26 C50.2,26.5 56.3,21.3 56.8,14.4 C57.3,7.5 52.1,1.4 45.2,0.9 C38.3,0.4 32.2,5.6 31.7,12.5 C31.6,14 31.8,15.4 32.1,16.8 C32.1,17 32,17.2 31.8,17.3 C30.9,18.1 30,18.9 29.1,19.6 C29.1,19.6 28.6,20 28,20.5 C25.5,22.6 19.8,27.6 19.7,27.7 C17.3,29.7 15,31.8 12.6,33.8 C9.9,36.1 7.2,38.5 4.4,40.8 C3.2,41.8 2.3,43 1.7,44.4 C0.5,47.3 0.4,50.3 1.4,53.3 C1.7,54.2 2.2,55.1 2.9,55.9 C11,49.1 37.5,26.3 38.3,25.6 Z M43.7,20.1 C40,19.8 37.3,16.6 37.5,12.9 C37.8,9.2 41,6.5 44.7,6.7 C48.4,7 51.1,10.2 50.9,13.9 C50.6,17.6 47.4,20.3 43.7,20.1 Z" id="Shape"></path>
                    <path d="M37.4,26.4 L29.4,19.4 C29.3,19.5 29.2,19.6 29.1,19.7 C29.1,19.7 28.6,20.1 28,20.6 C25.5,22.7 19.8,27.7 19.7,27.8 L27.8,34.6 C32.2,30.8 35.8,27.7 37.4,26.4 Z" id="Shape"></path>
                    <path d="M54.5,55.9 C55.2,55.1 55.7,54.3 56,53.3 C57.1,50.3 57,47.4 55.7,44.4 C55.1,43 54.2,41.8 53,40.8 C50.3,38.5 47.6,36.1 44.8,33.8 C42.4,31.8 40.1,29.7 37.7,27.7 C37.6,27.6 31.9,22.7 29.4,20.5 C28.8,20 28.3,19.6 28.3,19.6 C27.4,18.8 26.5,18.1 25.6,17.3 C25.5,17.2 25.4,17 25.3,16.8 C25.7,15.4 25.8,14 25.7,12.5 C25.2,5.6 19.1,0.4 12.2,0.9 C5.3,1.4 0.1,7.5 0.6,14.4 C1.1,21.3 7.2,26.5 14.1,26 C15.4,25.9 16.6,25.6 17.7,25.2 C17.7,25.2 17.8,25.2 17.8,25.2 C18.3,25.1 18.7,25.3 19.1,25.6 C20.1,26.3 46.6,49.1 54.5,55.9 Z M6.7,13.9 C6.4,10.2 9.2,7 12.9,6.7 C16.6,6.4 19.8,9.2 20.1,12.9 C20.4,16.6 17.6,19.8 13.9,20.1 C10.2,20.3 7,17.6 6.7,13.9 Z" id="Shape"></path>
                    <g transform="translate(24.000000, 22.000000)" id="Shape">
                        <path d="M2.4,8.3 C2.5,8.4 2.6,8.4 2.7,8.5 C3.3,8.9 4,9.1 4.7,9.1 C5.8,9.1 6.8,8.7 7.6,7.9 C8.4,7.1 8.9,6.1 8.9,5 C8.9,4.3 8.7,3.6 8.3,3 C8.2,2.9 8.2,2.8 8.1,2.7 L2.4,8.3 Z"></path>
                        <path d="M7.1,1.5 C7,1.4 6.9,1.4 6.8,1.3 C6.2,0.9 5.5,0.7 4.8,0.7 C3.7,0.7 2.7,1.1 1.9,2 C1.1,2.8 0.7,3.8 0.7,4.9 C0.7,5.6 0.9,6.3 1.3,6.9 C1.4,7 1.4,7.1 1.5,7.2 L7.1,1.5 Z"></path>
                    </g>
                </g>
                <g id="Group" transform="translate(160.000000, 55.000000)">
                    <rect id="Rectangle-path" x="0.2" y="0.8" width="20" height="32.6"></rect>
                    <rect id="Rectangle-path" x="0.2" y="43.4" width="20" height="32.6"></rect>
                    <rect id="Rectangle-path" x="0.2" y="86" width="20" height="32.2"></rect>
                </g>
            </g>
        </g>
    </g>
</svg>