<?xml version="1.0" encoding="utf-8"?>
<!-- Generator: Adobe Illustrator 22.1.0, SVG Export Plug-In . SVG Version: 6.00 Build 0)  -->
<svg version="1.1" id="Layer_1" xmlns="http://www.w3.org/2000/svg" xmlns:xlink="http://www.w3.org/1999/xlink" x="0px" y="0px"
	 viewBox="0 0 841.9 595.3" style="enable-background:new 0 0 841.9 595.3;" xml:space="preserve">
<style type="text/css">
	.st0{fill:#55BDB9;}
</style>
<path class="st0" d="M244.8,383.2c-3.2,1.1-10.5,1.9-15.2,1.9c-14.6,0-25.3-4.9-31.5-13.1c-4.7-6.2-6.8-14.2-6.8-27.2v-31.9h-25.3
	v-20.6h25.3V267h24.4v25.3h30v20.6h-30v34.7c0,5.6,0.9,9,3,11.4c2.4,2.8,6.4,4.5,12.4,4.5c3.6,0,8.2-0.6,9.9-0.9L244.8,383.2z"/>
<path class="st0" d="M313.3,313.8c-1.7-0.6-5.3-0.9-8.8-0.9c-10.7,0-19.1,7.7-22.1,13.1v57.2H258v-90.9h23.4v9.2
	c5.4-6.7,15.4-11.1,26.4-11.1c3.6,0,5.6,0.4,8.2,0.7L313.3,313.8z"/>
<path class="st0" d="M362.3,383.2v-90.9h23.4v7.3c7.1-6.4,15.7-9.2,24.6-9.2c12.4,0,23.4,5.6,30.6,14.2c7.3-7.7,18.7-14.2,32.2-14.2
	c12.6,0,24.6,5.6,31.9,14.6c5.8,7.1,9.2,16.5,9.2,30v48.2h-24.4v-49.1c0-8.2-1.7-12.4-4.5-15.6c-3.7-4.1-9-5.6-13.7-5.6
	c-10.5,0-18.7,7.3-21.9,12c0.4,3,0.8,6.4,0.8,10.1v48.2H426v-49.1c0-8.2-1.7-12.4-4.5-15.6c-3.8-4.1-9-5.6-13.7-5.6
	c-10.3,0-17.8,6.9-21.2,11.2v59.1H362.3z"/>
<path class="st0" d="M524.1,383.2v-90.9h23.4v7.3c7.1-6.4,15.7-9.2,24.6-9.2c12.4,0,23.4,5.6,30.6,14.2c7.3-7.7,18.7-14.2,32.2-14.2
	c12.6,0,24.6,5.6,31.9,14.6c5.8,7.1,9.2,16.5,9.2,30v48.2h-24.4v-49.1c0-8.2-1.7-12.4-4.5-15.6c-3.7-4.1-9-5.6-13.7-5.6
	c-10.5,0-18.7,7.3-21.9,12c0.4,3,0.7,6.4,0.7,10.1v48.2h-24.4v-49.1c0-8.2-1.7-12.4-4.5-15.6c-3.7-4.1-9-5.6-13.7-5.6
	c-10.3,0-17.8,6.9-21.2,11.2v59.1H524.1z"/>
<g>
	<path class="st0" d="M345.3,235.6c0.4-0.3,0.8-0.5,1.3-0.4c0,0,0.1,0,0.1,0c1.1,0.4,2.3,0.7,3.6,0.8c6.9,0.5,13-4.7,13.5-11.6
		c0.5-6.9-4.7-13-11.6-13.5c-6.9-0.5-13,4.7-13.5,11.6c-0.1,1.5,0.1,2.9,0.4,4.3c0,0.2-0.1,0.4-0.3,0.5c-0.9,0.8-1.8,1.6-2.7,2.3
		c0,0-0.5,0.4-1.1,0.9l0,0c-2.5,2.1-8.2,7.1-8.3,7.2c-2.4,2-4.7,4.1-7.1,6.1c-2.7,2.3-5.4,4.7-8.2,7c-1.2,1-2.1,2.2-2.7,3.6
		c-1.2,2.9-1.3,5.9-0.3,8.9c0.3,0.9,0.8,1.8,1.5,2.6C318,259.1,344.5,236.3,345.3,235.6z M350.7,230.1c-3.7-0.3-6.4-3.5-6.2-7.2
		c0.3-3.7,3.5-6.4,7.2-6.2c3.7,0.3,6.4,3.5,6.2,7.2C357.6,227.6,354.4,230.3,350.7,230.1z"/>
	<path class="st0" d="M344.4,236.4l-8-7c-0.1,0.1-0.2,0.2-0.3,0.3c0,0-0.5,0.4-1.1,0.9l0,0c-2.5,2.1-8.2,7.1-8.3,7.2l8.1,6.8
		C339.2,240.8,342.8,237.7,344.4,236.4z"/>
	<path class="st0" d="M361.5,265.9c0.7-0.8,1.2-1.6,1.5-2.6c1.1-3,1-5.9-0.3-8.9c-0.6-1.4-1.5-2.6-2.7-3.6c-2.7-2.3-5.4-4.7-8.2-7
		c-2.4-2-4.7-4.1-7.1-6.1c-0.1-0.1-5.8-5-8.3-7.2l0,0c-0.6-0.5-1.1-0.9-1.1-0.9c-0.9-0.8-1.8-1.5-2.7-2.3c-0.1-0.1-0.2-0.3-0.3-0.5
		c0.4-1.4,0.5-2.8,0.4-4.3c-0.5-6.9-6.6-12.1-13.5-11.6c-6.9,0.5-12.1,6.6-11.6,13.5c0.5,6.9,6.6,12.1,13.5,11.6
		c1.3-0.1,2.5-0.4,3.6-0.8c0,0,0.1,0,0.1,0c0.5-0.1,0.9,0.1,1.3,0.4C327.1,236.3,353.6,259.1,361.5,265.9z M313.7,223.9
		c-0.3-3.7,2.5-6.9,6.2-7.2c3.7-0.3,6.9,2.5,7.2,6.2c0.3,3.7-2.5,6.9-6.2,7.2C317.2,230.3,314,227.6,313.7,223.9z"/>
	<g>
		<path class="st0" d="M333.4,240.3c0.1,0.1,0.2,0.1,0.3,0.2l0,0c0.6,0.4,1.3,0.6,2,0.6c1.1,0,2.1-0.4,2.9-1.2
			c0.8-0.8,1.3-1.8,1.3-2.9c0-0.7-0.2-1.4-0.6-2l0,0c-0.1-0.1-0.1-0.2-0.2-0.3L333.4,240.3z"/>
		<path class="st0" d="M338.1,233.5c-0.1-0.1-0.2-0.1-0.3-0.2l0,0c-0.6-0.4-1.3-0.6-2-0.6c-1.1,0-2.1,0.4-2.9,1.3
			c-0.8,0.8-1.2,1.8-1.2,2.9c0,0.7,0.2,1.4,0.6,2l0,0c0.1,0.1,0.1,0.2,0.2,0.3L338.1,233.5z"/>
	</g>
</g>
<g>
	<rect x="326.2" y="265.8" class="st0" width="20" height="32.6"/>
	<rect x="326.2" y="308.4" class="st0" width="20" height="32.6"/>
	<rect x="326.2" y="351" class="st0" width="20" height="32.2"/>
</g>
</svg>
